<?xml version="1.0" standalone="no"?>
<!DOCTYPE svg PUBLIC "-//W3C//DTD SVG 20010904//EN"
 "http://www.w3.org/TR/2001/REC-SVG-20010904/DTD/svg10.dtd">
<svg version="1.0" xmlns="http://www.w3.org/2000/svg"
 width="16.000000pt" height="16.000000pt" viewBox="0 0 16.000000 16.000000"
 preserveAspectRatio="xMidYMid meet">

<g transform="translate(0.000000,16.000000) scale(0.100000,-0.100000)"
fill="#000000" stroke="none">
<path d="M14 95 c-8 -20 2 -45 18 -44 10 0 10 2 1 6 -17 6 -17 40 0 46 9 4 9
6 -1 6 -7 1 -15 -6 -18 -14z"/>
<path d="M55 97 c8 -20 45 -30 45 -11 0 8 5 14 12 14 6 0 8 3 5 6 -4 4 -13 1
-22 -6 -12 -10 -18 -10 -30 0 -13 11 -14 10 -10 -3z"/>
<path d="M137 90 c4 -13 0 -26 -8 -32 -12 -8 -11 -9 1 -5 18 5 26 35 11 50 -7
7 -8 3 -4 -13z"/>
</g>
</svg>
